<svg width="296" height="40" viewBox="0 0 296 40" fill="none" xmlns="http://www.w3.org/2000/svg">
<rect x="1" y="1" width="294" height="38" rx="19" stroke="url(#paint0_diamond)" stroke-width="2"/>
<path d="M102.104 21.1035V25H100.791V15.0469H104.462C105.551 15.0469 106.403 15.3249 107.019 15.8809C107.638 16.4368 107.948 17.1729 107.948 18.0889C107.948 19.055 107.645 19.8001 107.039 20.3242C106.438 20.8438 105.574 21.1035 104.448 21.1035H102.104ZM102.104 20.0303H104.462C105.164 20.0303 105.701 19.8662 106.075 19.5381C106.449 19.2054 106.636 18.7269 106.636 18.1025C106.636 17.5101 106.449 17.0361 106.075 16.6807C105.701 16.3252 105.189 16.1406 104.537 16.127H102.104V20.0303ZM114.673 20.9736H112.336V25H111.016V15.0469H114.311C115.432 15.0469 116.294 15.3021 116.895 15.8125C117.501 16.3229 117.804 17.0658 117.804 18.041C117.804 18.6608 117.636 19.2008 117.298 19.6611C116.966 20.1214 116.501 20.4655 115.904 20.6934L118.242 24.918V25H116.834L114.673 20.9736ZM112.336 19.9004H114.352C115.004 19.9004 115.521 19.7318 115.904 19.3945C116.291 19.0573 116.485 18.6061 116.485 18.041C116.485 17.4258 116.3 16.9541 115.931 16.626C115.567 16.2979 115.038 16.1315 114.345 16.127H112.336V19.9004ZM128.706 20.3447C128.706 21.32 128.542 22.1722 128.214 22.9014C127.886 23.626 127.421 24.1797 126.82 24.5625C126.218 24.9453 125.516 25.1367 124.714 25.1367C123.93 25.1367 123.235 24.9453 122.629 24.5625C122.023 24.1751 121.551 23.626 121.214 22.915C120.881 22.1995 120.71 21.3724 120.701 20.4336V19.7158C120.701 18.7588 120.868 17.9134 121.2 17.1797C121.533 16.446 122.002 15.8854 122.609 15.498C123.219 15.1061 123.917 14.9102 124.7 14.9102C125.498 14.9102 126.2 15.1038 126.806 15.4912C127.417 15.874 127.886 16.4323 128.214 17.166C128.542 17.8952 128.706 18.7451 128.706 19.7158V20.3447ZM127.401 19.7021C127.401 18.5218 127.164 17.6172 126.69 16.9883C126.216 16.3548 125.553 16.0381 124.7 16.0381C123.871 16.0381 123.217 16.3548 122.738 16.9883C122.265 17.6172 122.021 18.4922 122.007 19.6133V20.3447C122.007 21.4886 122.246 22.3887 122.725 23.0449C123.208 23.6966 123.871 24.0225 124.714 24.0225C125.562 24.0225 126.218 23.7148 126.683 23.0996C127.148 22.4798 127.387 21.5934 127.401 20.4404V19.7021ZM135.008 20.5635C133.882 20.2399 133.062 19.8434 132.547 19.374C132.036 18.9001 131.781 18.3167 131.781 17.624C131.781 16.8402 132.093 16.193 132.718 15.6826C133.346 15.1676 134.162 14.9102 135.165 14.9102C135.848 14.9102 136.457 15.0423 136.99 15.3066C137.528 15.571 137.943 15.9355 138.234 16.4004C138.53 16.8652 138.679 17.3734 138.679 17.9248H137.359C137.359 17.3232 137.168 16.8516 136.785 16.5098C136.402 16.1634 135.862 15.9902 135.165 15.9902C134.518 15.9902 134.012 16.1338 133.647 16.4209C133.287 16.7035 133.107 17.0977 133.107 17.6035C133.107 18.0091 133.278 18.3532 133.62 18.6357C133.966 18.9137 134.552 19.1689 135.377 19.4014C136.206 19.6338 136.853 19.8913 137.318 20.1738C137.788 20.4518 138.134 20.7777 138.357 21.1514C138.585 21.5251 138.699 21.9648 138.699 22.4707C138.699 23.2773 138.385 23.9245 137.756 24.4121C137.127 24.8952 136.286 25.1367 135.233 25.1367C134.55 25.1367 133.912 25.0068 133.319 24.7471C132.727 24.4827 132.269 24.1227 131.945 23.667C131.626 23.2113 131.467 22.694 131.467 22.1152H132.786C132.786 22.7168 133.007 23.193 133.449 23.5439C133.896 23.8903 134.49 24.0635 135.233 24.0635C135.926 24.0635 136.457 23.9222 136.826 23.6396C137.195 23.3571 137.38 22.972 137.38 22.4844C137.38 21.9967 137.209 21.6208 136.867 21.3564C136.525 21.0876 135.905 20.8232 135.008 20.5635ZM144.72 20.5635C143.594 20.2399 142.774 19.8434 142.259 19.374C141.749 18.9001 141.494 18.3167 141.494 17.624C141.494 16.8402 141.806 16.193 142.43 15.6826C143.059 15.1676 143.875 14.9102 144.877 14.9102C145.561 14.9102 146.169 15.0423 146.703 15.3066C147.24 15.571 147.655 15.9355 147.947 16.4004C148.243 16.8652 148.391 17.3734 148.391 17.9248H147.072C147.072 17.3232 146.88 16.8516 146.497 16.5098C146.115 16.1634 145.575 15.9902 144.877 15.9902C144.23 15.9902 143.724 16.1338 143.36 16.4209C143 16.7035 142.82 17.0977 142.82 17.6035C142.82 18.0091 142.991 18.3532 143.332 18.6357C143.679 18.9137 144.264 19.1689 145.089 19.4014C145.919 19.6338 146.566 19.8913 147.031 20.1738C147.5 20.4518 147.846 20.7777 148.07 21.1514C148.298 21.5251 148.412 21.9648 148.412 22.4707C148.412 23.2773 148.097 23.9245 147.468 24.4121C146.839 24.8952 145.998 25.1367 144.946 25.1367C144.262 25.1367 143.624 25.0068 143.032 24.7471C142.439 24.4827 141.981 24.1227 141.658 23.667C141.339 23.2113 141.179 22.694 141.179 22.1152H142.498C142.498 22.7168 142.719 23.193 143.162 23.5439C143.608 23.8903 144.203 24.0635 144.946 24.0635C145.638 24.0635 146.169 23.9222 146.538 23.6396C146.908 23.3571 147.092 22.972 147.092 22.4844C147.092 21.9967 146.921 21.6208 146.579 21.3564C146.238 21.0876 145.618 20.8232 144.72 20.5635ZM157.126 20.3994H152.812V23.9268H157.823V25H151.5V15.0469H157.755V16.127H152.812V19.3262H157.126V20.3994ZM168.206 23.6943C167.868 24.1774 167.397 24.5397 166.791 24.7812C166.189 25.0182 165.487 25.1367 164.685 25.1367C163.874 25.1367 163.154 24.9476 162.525 24.5693C161.896 24.1865 161.408 23.6442 161.062 22.9424C160.72 22.2406 160.545 21.4271 160.536 20.502V19.6338C160.536 18.1344 160.884 16.9723 161.582 16.1475C162.283 15.3226 163.268 14.9102 164.535 14.9102C165.574 14.9102 166.41 15.1768 167.044 15.71C167.677 16.2386 168.064 16.9906 168.206 17.9658H166.893C166.647 16.6488 165.863 15.9902 164.542 15.9902C163.662 15.9902 162.994 16.3001 162.539 16.9199C162.087 17.5352 161.86 18.4284 161.855 19.5996V20.4131C161.855 21.5296 162.11 22.4183 162.621 23.0791C163.131 23.7354 163.822 24.0635 164.692 24.0635C165.184 24.0635 165.615 24.0088 165.984 23.8994C166.353 23.79 166.658 23.6055 166.9 23.3457V21.1104H164.596V20.0439H168.206V23.6943ZM178.807 15.0469V21.8145C178.802 22.7533 178.506 23.5212 177.918 24.1182C177.335 24.7152 176.542 25.0501 175.539 25.123L175.191 25.1367C174.101 25.1367 173.233 24.8428 172.586 24.2549C171.939 23.667 171.611 22.8581 171.602 21.8281V15.0469H172.901V21.7871C172.901 22.5072 173.099 23.0677 173.495 23.4688C173.892 23.8652 174.457 24.0635 175.191 24.0635C175.933 24.0635 176.501 23.8652 176.893 23.4688C177.289 23.0723 177.487 22.514 177.487 21.7939V15.0469H178.807ZM183.686 25H182.374V15.0469H183.686V25ZM191.143 20.9736H188.805V25H187.486V15.0469H190.781C191.902 15.0469 192.763 15.3021 193.365 15.8125C193.971 16.3229 194.274 17.0658 194.274 18.041C194.274 18.6608 194.105 19.2008 193.768 19.6611C193.435 20.1214 192.97 20.4655 192.373 20.6934L194.711 24.918V25H193.303L191.143 20.9736ZM188.805 19.9004H190.822C191.473 19.9004 191.991 19.7318 192.373 19.3945C192.761 19.0573 192.954 18.6061 192.954 18.041C192.954 17.4258 192.77 16.9541 192.401 16.626C192.036 16.2979 191.508 16.1315 190.815 16.127H188.805V19.9004Z" fill="#116666"/>
<path d="M102.104 21.1035V16.1035H97.1035V21.1035H102.104ZM102.104 25V30H107.104V25H102.104ZM100.791 25H95.791V30H100.791V25ZM100.791 15.0469V10.0469H95.791V15.0469H100.791ZM107.019 15.8809L103.666 19.5905L103.673 19.5966L103.68 19.6028L107.019 15.8809ZM107.039 20.3242L110.307 24.1083L110.309 24.1064L107.039 20.3242ZM102.104 20.0303H97.1035V25.0303H102.104V20.0303ZM106.075 19.5381L109.374 23.2953L109.387 23.284L109.4 23.2726L106.075 19.5381ZM104.537 16.127L104.642 11.1281L104.59 11.127H104.537V16.127ZM102.104 16.127V11.127H97.1035V16.127H102.104ZM97.1035 21.1035V25H107.104V21.1035H97.1035ZM102.104 20H100.791V30H102.104V20ZM105.791 25V15.0469H95.791V25H105.791ZM100.791 20.0469H104.462V10.0469H100.791V20.0469ZM104.462 20.0469C104.589 20.0469 104.536 20.0639 104.367 20.0089C104.181 19.9481 103.92 19.8202 103.666 19.5905L110.371 12.1712C108.579 10.5521 106.393 10.0469 104.462 10.0469V20.0469ZM103.68 19.6028C103.464 19.4094 103.251 19.1316 103.108 18.7901C102.969 18.4602 102.948 18.2 102.948 18.0889H112.948C112.948 15.9116 112.147 13.7646 110.357 12.159L103.68 19.6028ZM102.948 18.0889C102.948 18.053 102.954 17.8215 103.089 17.4885C103.234 17.1326 103.472 16.7985 103.769 16.542L110.309 24.1064C112.239 22.4377 112.948 20.1801 112.948 18.0889H102.948ZM103.771 16.5401C104.069 16.2824 104.349 16.166 104.5 16.1206C104.634 16.0802 104.639 16.1035 104.448 16.1035V26.1035C106.28 26.1035 108.483 25.6839 110.307 24.1083L103.771 16.5401ZM104.448 16.1035H102.104V26.1035H104.448V16.1035ZM102.104 25.0303H104.462V15.0303H102.104V25.0303ZM104.462 25.0303C105.882 25.0303 107.774 24.7002 109.374 23.2953L102.776 15.7809C103.629 15.0322 104.445 15.0303 104.462 15.0303V25.0303ZM109.4 23.2726C111.094 21.7643 111.636 19.7728 111.636 18.1025H101.636C101.636 17.9227 101.662 17.5615 101.838 17.111C102.024 16.6358 102.332 16.1761 102.751 15.8036L109.4 23.2726ZM111.636 18.1025C111.636 16.3633 111.038 14.5004 109.521 13.0579L102.629 20.3035C102.295 19.9861 102.021 19.5851 101.844 19.1365C101.673 18.7026 101.636 18.3333 101.636 18.1025H111.636ZM109.521 13.0579C108.024 11.6338 106.199 11.1607 104.642 11.1281L104.432 21.1259C104.319 21.1235 104.059 21.1034 103.717 20.9801C103.358 20.8508 102.973 20.6307 102.629 20.3035L109.521 13.0579ZM104.537 11.127H102.104V21.127H104.537V11.127ZM97.1035 16.127V20.0303H107.104V16.127H97.1035ZM114.673 20.9736L119.079 18.6098L117.665 15.9736H114.673V20.9736ZM112.336 20.9736V15.9736H107.336V20.9736H112.336ZM112.336 25V30H117.336V25H112.336ZM111.016 25H106.016V30H111.016V25ZM111.016 15.0469V10.0469H106.016V15.0469H111.016ZM116.895 15.8125L113.66 19.625L113.667 19.6311L113.674 19.6371L116.895 15.8125ZM117.298 19.6611L113.265 16.706L113.256 16.7191L113.246 16.7322L117.298 19.6611ZM115.904 20.6934L114.121 16.0221L108.741 18.0756L111.529 23.1144L115.904 20.6934ZM118.242 24.918H123.242V23.6267L122.617 22.497L118.242 24.918ZM118.242 25V30H123.242V25H118.242ZM116.834 25L112.428 27.3638L113.842 30H116.834V25ZM112.336 19.9004H107.336V24.9004H112.336V19.9004ZM115.904 19.3945L112.621 15.6234L112.61 15.633L112.599 15.6427L115.904 19.3945ZM115.931 16.626L112.586 20.3424L112.598 20.3528L112.609 20.363L115.931 16.626ZM114.345 16.127L114.378 11.1271L114.362 11.127H114.345V16.127ZM112.336 16.127V11.127H107.336V16.127H112.336ZM114.673 15.9736H112.336V25.9736H114.673V15.9736ZM107.336 20.9736V25H117.336V20.9736H107.336ZM112.336 20H111.016V30H112.336V20ZM116.016 25V15.0469H106.016V25H116.016ZM111.016 20.0469H114.311V10.0469H111.016V20.0469ZM114.311 20.0469C114.504 20.0469 114.506 20.0702 114.378 20.0323C114.234 19.9897 113.958 19.8779 113.66 19.625L120.13 12C118.31 10.4556 116.125 10.0469 114.311 10.0469V20.0469ZM113.674 19.6371C113.35 19.3639 113.098 19.0099 112.947 18.6412C112.808 18.2988 112.804 18.0651 112.804 18.041H122.804C122.804 15.9626 122.106 13.6643 120.116 11.9879L113.674 19.6371ZM112.804 18.041C112.804 17.8935 112.825 17.6768 112.905 17.4207C112.986 17.1604 113.111 16.9162 113.265 16.706L121.332 22.6162C122.352 21.2238 122.804 19.6268 122.804 18.041H112.804ZM113.246 16.7322C113.386 16.5382 113.553 16.3736 113.726 16.2456C113.895 16.1202 114.038 16.0536 114.121 16.0221L117.687 25.3647C119.076 24.8344 120.378 23.936 121.351 22.5901L113.246 16.7322ZM111.529 23.1144L113.867 27.339L122.617 22.497L120.279 18.2724L111.529 23.1144ZM113.242 24.918V25H123.242V24.918H113.242ZM118.242 20H116.834V30H118.242V20ZM121.24 22.6362L119.079 18.6098L110.267 23.3374L112.428 27.3638L121.24 22.6362ZM112.336 24.9004H114.352V14.9004H112.336V24.9004ZM114.352 24.9004C115.873 24.9004 117.682 24.4913 119.209 23.1463L112.599 15.6427C113.36 14.9723 114.134 14.9004 114.352 14.9004V24.9004ZM119.187 23.1656C120.782 21.7768 121.485 19.8893 121.485 18.041H111.485C111.485 17.747 111.537 17.3155 111.745 16.8308C111.958 16.334 112.275 15.9249 112.621 15.6234L119.187 23.1656ZM121.485 18.041C121.485 16.3758 120.943 14.3911 119.253 12.8889L112.609 20.363C112.189 19.9893 111.878 19.5272 111.69 19.0478C111.512 18.5931 111.485 18.2268 111.485 18.041H121.485ZM119.276 12.9095C117.688 11.4799 115.793 11.1364 114.378 11.1271L114.312 21.1268C114.283 21.1267 113.446 21.1158 112.586 20.3424L119.276 12.9095ZM114.345 11.127H112.336V21.127H114.345V11.127ZM107.336 16.127V19.9004H117.336V16.127H107.336ZM128.214 22.9014L132.769 24.9639L132.774 24.9532L128.214 22.9014ZM122.629 24.5625L119.937 28.7756L119.948 28.7828L119.959 28.7899L122.629 24.5625ZM121.214 22.915L116.68 25.0231L116.688 25.0406L116.697 25.058L121.214 22.915ZM120.701 20.4336H115.701V20.4579L115.702 20.4821L120.701 20.4336ZM121.2 17.1797L116.647 15.1149L121.2 17.1797ZM122.609 15.498L125.301 19.7111L125.309 19.706L122.609 15.498ZM126.806 15.4912L124.113 19.7043L124.132 19.7161L124.15 19.7276L126.806 15.4912ZM128.214 17.166L123.65 19.2072L123.654 19.2178L128.214 17.166ZM126.69 16.9883L122.686 19.9837L122.691 19.9906L122.697 19.9975L126.69 16.9883ZM122.738 16.9883L118.749 13.9745L118.745 13.979L122.738 16.9883ZM122.007 19.6133L117.007 19.5523L117.007 19.5828V19.6133H122.007ZM122.725 23.0449L118.685 25.9908L118.696 26.0066L118.708 26.0224L122.725 23.0449ZM126.683 23.0996L130.672 26.1138L130.677 26.1067L130.683 26.0996L126.683 23.0996ZM127.401 20.4404L132.4 20.4997L132.401 20.4701V20.4404H127.401ZM123.706 20.3447C123.706 20.7646 123.636 20.891 123.654 20.8495L132.774 24.9532C133.449 23.4534 133.706 21.8754 133.706 20.3447H123.706ZM123.659 20.8388C123.665 20.8269 123.701 20.7506 123.79 20.6453C123.881 20.5367 123.999 20.4307 124.135 20.3442L129.504 28.7808C131.018 27.8173 132.088 26.4677 132.769 24.9639L123.659 20.8388ZM124.135 20.3442C124.266 20.2608 124.403 20.203 124.526 20.1693C124.646 20.1368 124.716 20.1367 124.714 20.1367V30.1367C126.345 30.1367 128.003 29.7361 129.504 28.7808L124.135 20.3442ZM124.714 20.1367C124.732 20.1367 124.812 20.1393 124.933 20.1726C125.057 20.2068 125.184 20.2623 125.299 20.3351L119.959 28.7899C121.438 29.7242 123.077 30.1367 124.714 30.1367V20.1367ZM125.322 20.3494C125.433 20.4204 125.533 20.5088 125.614 20.6023C125.692 20.6933 125.726 20.76 125.732 20.7721L116.697 25.058C117.397 26.534 118.466 27.836 119.937 28.7756L125.322 20.3494ZM125.748 20.8069C125.767 20.8478 125.705 20.7452 125.701 20.3851L115.702 20.4821C115.716 21.9996 115.996 23.5513 116.68 25.0231L125.748 20.8069ZM125.701 20.4336V19.7158H115.701V20.4336H125.701ZM125.701 19.7158C125.701 19.3389 125.766 19.2192 125.754 19.2444L116.647 15.1149C115.97 16.6076 115.701 18.1786 115.701 19.7158H125.701ZM125.754 19.2444C125.752 19.2487 125.719 19.3187 125.635 19.4191C125.549 19.5228 125.434 19.626 125.301 19.7111L119.916 11.285C118.399 12.2543 117.329 13.6094 116.647 15.1149L125.754 19.2444ZM125.309 19.706C125.199 19.777 125.071 19.8344 124.942 19.8706C124.816 19.9061 124.728 19.9102 124.7 19.9102V9.91016C123.039 9.91016 121.389 10.3394 119.908 11.2901L125.309 19.706ZM124.7 19.9102C124.692 19.9102 124.616 19.9088 124.495 19.8752C124.37 19.8407 124.237 19.7831 124.113 19.7043L129.498 11.2781C128.002 10.322 126.345 9.91016 124.7 9.91016V19.9102ZM124.15 19.7276C124.009 19.6392 123.885 19.5293 123.789 19.4148C123.696 19.3038 123.656 19.2221 123.65 19.2072L132.778 15.1248C132.094 13.5945 131.007 12.2236 129.462 11.2548L124.15 19.7276ZM123.654 19.2178C123.637 19.1792 123.706 19.3043 123.706 19.7158H133.706C133.706 18.186 133.447 16.6112 132.774 15.1142L123.654 19.2178ZM123.706 19.7158V20.3447H133.706V19.7158H123.706ZM132.401 19.7021C132.401 17.9513 132.064 15.812 130.683 13.979L122.697 19.9975C122.475 19.7039 122.402 19.4674 122.386 19.4055C122.372 19.3527 122.401 19.4334 122.401 19.7021H132.401ZM130.693 13.9929C129.194 11.9887 126.987 11.0381 124.7 11.0381V21.0381C124.499 21.0381 124.123 20.998 123.682 20.7874C123.228 20.5708 122.896 20.2636 122.686 19.9837L130.693 13.9929ZM124.7 11.0381C122.385 11.0381 120.221 12.0261 118.749 13.9745L126.728 20.002C126.535 20.2575 126.217 20.5578 125.767 20.7756C125.325 20.99 124.934 21.0381 124.7 21.0381V11.0381ZM118.745 13.979C117.41 15.751 117.029 17.8028 117.007 19.5523L127.007 19.6743C127.009 19.45 127.034 19.3945 127.017 19.4583C126.996 19.5319 126.924 19.7422 126.732 19.9975L118.745 13.979ZM117.007 19.6133V20.3447H127.007V19.6133H117.007ZM117.007 20.3447C117.007 22.1278 117.374 24.1929 118.685 25.9908L126.765 20.0991C126.94 20.3387 127.002 20.5319 127.019 20.5932C127.032 20.6447 127.007 20.5776 127.007 20.3447H117.007ZM118.708 26.0224C120.177 28.004 122.36 29.0225 124.714 29.0225V19.0225C124.949 19.0225 125.344 19.0716 125.79 19.2906C126.242 19.5129 126.556 19.8166 126.742 20.0674L118.708 26.0224ZM124.714 29.0225C126.95 29.0225 129.159 28.1162 130.672 26.1138L122.693 20.0854C122.919 19.787 123.265 19.4777 123.72 19.2645C124.159 19.0585 124.528 19.0225 124.714 19.0225V29.0225ZM130.683 26.0996C132.028 24.3067 132.38 22.2214 132.4 20.4997L122.401 20.3811C122.398 20.6394 122.37 20.7173 122.384 20.667C122.399 20.6083 122.471 20.3824 122.683 20.0996L130.683 26.0996ZM132.401 20.4404V19.7021H122.401V20.4404H132.401ZM135.008 20.5635L136.397 15.7605L136.389 15.7581L135.008 20.5635ZM132.547 19.374L129.144 23.038L129.161 23.0537L129.178 23.0693L132.547 19.374ZM132.718 15.6826L135.882 19.5537L135.885 19.5512L132.718 15.6826ZM136.99 15.3066L134.769 19.7864L134.777 19.7902L134.784 19.7939L136.99 15.3066ZM138.234 16.4004L133.999 19.0578L134.008 19.0727L134.018 19.0874L138.234 16.4004ZM138.679 17.9248V22.9248H143.679V17.9248H138.679ZM137.359 17.9248H132.359V22.9248H137.359V17.9248ZM136.785 16.5098L133.43 20.2174L133.443 20.2285L133.455 20.2395L136.785 16.5098ZM133.647 16.4209L136.734 20.3542L136.741 20.3491L133.647 16.4209ZM133.62 18.6357L130.434 22.4895L130.462 22.5125L130.49 22.5351L133.62 18.6357ZM135.377 19.4014L134.021 24.214L134.028 24.2159L135.377 19.4014ZM137.318 20.1738L134.721 24.4464L134.746 24.4613L134.77 24.476L137.318 20.1738ZM138.357 21.1514L134.065 23.7161L134.077 23.7353L134.088 23.7544L138.357 21.1514ZM137.756 24.4121L140.801 28.3774L140.81 28.3704L140.819 28.3635L137.756 24.4121ZM133.319 24.7471L131.282 29.3132L131.297 29.3198L131.311 29.3262L133.319 24.7471ZM131.945 23.667L127.849 26.5343L127.859 26.548L127.868 26.5616L131.945 23.667ZM131.467 22.1152V17.1152H126.467V22.1152H131.467ZM132.786 22.1152H137.786V17.1152H132.786V22.1152ZM133.449 23.5439L130.34 27.4601L130.363 27.4777L130.385 27.495L133.449 23.5439ZM136.867 21.3564L133.776 25.2862L133.792 25.299L133.808 25.3117L136.867 21.3564ZM136.389 15.7581C136.026 15.6538 135.818 15.5672 135.724 15.5217C135.623 15.4727 135.726 15.5064 135.915 15.6788L129.178 23.0693C130.523 24.2952 132.201 24.9592 133.626 25.3689L136.389 15.7581ZM135.949 15.7101C136.149 15.8955 136.381 16.1835 136.553 16.577C136.726 16.9711 136.781 17.3418 136.781 17.624H126.781C126.781 19.7158 127.622 21.6239 129.144 23.038L135.949 15.7101ZM136.781 17.624C136.781 17.9149 136.718 18.3093 136.519 18.7232C136.321 19.133 136.065 19.4039 135.882 19.5537L129.553 11.8116C127.806 13.24 126.781 15.2905 126.781 17.624H136.781ZM135.885 19.5512C135.682 19.7174 135.472 19.8189 135.306 19.8714C135.152 19.9201 135.089 19.9102 135.165 19.9102V9.91016C133.285 9.91016 131.266 10.4089 129.55 11.8141L135.885 19.5512ZM135.165 19.9102C135.184 19.9102 135.149 19.912 135.072 19.8953C134.993 19.8782 134.888 19.845 134.769 19.7864L139.211 10.8269C137.891 10.1728 136.504 9.91016 135.165 9.91016V19.9102ZM134.784 19.7939C134.691 19.7479 134.554 19.6661 134.403 19.5335C134.25 19.3989 134.111 19.2371 133.999 19.0578L142.469 13.7429C141.639 12.4199 140.487 11.4543 139.196 10.8194L134.784 19.7939ZM134.018 19.0874C133.922 18.937 133.831 18.7485 133.767 18.5293C133.703 18.3101 133.679 18.1027 133.679 17.9248H143.679C143.679 16.4218 143.259 14.9814 142.451 13.7133L134.018 19.0874ZM138.679 12.9248H137.359V22.9248H138.679V12.9248ZM142.359 17.9248C142.359 16.1683 141.746 14.2362 140.115 12.7801L133.455 20.2395C133.081 19.9058 132.777 19.4781 132.583 19C132.396 18.5405 132.359 18.1535 132.359 17.9248H142.359ZM140.14 12.8021C138.556 11.3695 136.661 10.9902 135.165 10.9902V20.9902C135.063 20.9902 134.248 20.9573 133.43 20.2174L140.14 12.8021ZM135.165 10.9902C133.831 10.9902 132.09 11.283 130.554 12.4927L136.741 20.3491C135.934 20.9846 135.205 20.9902 135.165 20.9902V10.9902ZM130.56 12.4876C128.854 13.8265 128.107 15.7472 128.107 17.6035H138.107C138.107 17.9483 138.044 18.4504 137.79 19.0054C137.53 19.5758 137.146 20.0308 136.734 20.3542L130.56 12.4876ZM128.107 17.6035C128.107 19.6511 129.065 21.3578 130.434 22.4895L136.806 14.782C137.092 15.0188 137.443 15.3962 137.713 15.9416C137.99 16.4992 138.107 17.0787 138.107 17.6035H128.107ZM130.49 22.5351C131.648 23.4646 133.038 23.9372 134.021 24.214L136.733 14.5888C136.607 14.5532 136.509 14.5222 136.437 14.4972C136.364 14.4719 136.326 14.456 136.316 14.452C136.306 14.4475 136.341 14.4618 136.408 14.5001C136.442 14.5198 136.489 14.5481 136.545 14.5859C136.602 14.6236 136.671 14.6733 136.75 14.7364L130.49 22.5351ZM134.028 24.2159C134.311 24.2953 134.508 24.3639 134.636 24.4146C134.768 24.4671 134.783 24.4839 134.721 24.4464L139.915 15.9012C138.903 15.2859 137.77 14.8795 136.726 14.5868L134.028 24.2159ZM134.77 24.476C134.701 24.4349 134.364 24.2169 134.065 23.7161L142.649 18.5866C141.903 17.3385 140.874 16.4688 139.866 15.8717L134.77 24.476ZM134.088 23.7544C133.768 23.2284 133.699 22.7376 133.699 22.4707H143.699C143.699 21.192 143.403 19.8217 142.626 18.5483L134.088 23.7544ZM133.699 22.4707C133.699 22.2094 133.754 21.8117 133.966 21.3758C134.179 20.9377 134.464 20.6371 134.692 20.4607L140.819 28.3635C142.689 26.9138 143.699 24.7983 143.699 22.4707H133.699ZM134.71 20.4469C134.942 20.2687 135.153 20.1845 135.273 20.1499C135.382 20.1187 135.384 20.1367 135.233 20.1367V30.1367C137.028 30.1367 139.051 29.7218 140.801 28.3774L134.71 20.4469ZM135.233 20.1367C135.21 20.1367 135.214 20.1347 135.239 20.1398C135.265 20.1451 135.297 20.1546 135.327 20.1679L131.311 29.3262C132.572 29.8791 133.898 30.1367 135.233 30.1367V20.1367ZM135.356 20.1809C135.448 20.2218 135.749 20.3881 136.022 20.7724L127.868 26.5616C128.788 27.8573 130.005 28.7437 131.282 29.3132L135.356 20.1809ZM136.041 20.7997C136.172 20.9862 136.286 21.2115 136.364 21.4639C136.441 21.7145 136.467 21.9397 136.467 22.1152H126.467C126.467 23.6758 126.917 25.2027 127.849 26.5343L136.041 20.7997ZM131.467 27.1152H132.786V17.1152H131.467V27.1152ZM127.786 22.1152C127.786 24.1266 128.616 26.091 130.34 27.4601L136.558 19.6278C136.9 19.8996 137.245 20.2979 137.487 20.8187C137.724 21.3298 137.786 21.7948 137.786 22.1152H127.786ZM130.385 27.495C131.949 28.7082 133.73 29.0635 135.233 29.0635V19.0635C135.25 19.0635 135.842 19.0724 136.513 19.5928L130.385 27.495ZM135.233 29.0635C136.51 29.0635 138.288 28.817 139.865 27.61L133.787 19.6693C134.625 19.0274 135.342 19.0635 135.233 19.0635V29.0635ZM139.865 27.61C141.539 26.3287 142.38 24.4397 142.38 22.4844H132.38C132.38 22.0865 132.458 21.5496 132.732 20.9779C133.01 20.3984 133.402 19.9636 133.787 19.6693L139.865 27.61ZM142.38 22.4844C142.38 20.6756 141.661 18.7429 139.926 17.4012L133.808 25.3117C133.366 24.9698 132.967 24.4932 132.7 23.9057C132.441 23.3371 132.38 22.8268 132.38 22.4844H142.38ZM139.958 17.4267C138.801 16.5163 137.366 16.0408 136.397 15.7605L133.618 25.3665C133.774 25.4116 133.899 25.4515 133.997 25.4853C134.095 25.5194 134.156 25.5436 134.184 25.5558C134.215 25.5688 134.193 25.5612 134.134 25.5284C134.103 25.5112 134.056 25.4842 133.998 25.4462C133.94 25.4084 133.864 25.3557 133.776 25.2862L139.958 17.4267ZM144.72 20.5635L146.11 15.7605L146.101 15.7581L144.72 20.5635ZM142.259 19.374L138.857 23.038L138.874 23.0537L138.891 23.0693L142.259 19.374ZM142.43 15.6826L145.595 19.5537L145.598 19.5512L142.43 15.6826ZM146.703 15.3066L144.482 19.7864L144.489 19.7902L144.497 19.7939L146.703 15.3066ZM147.947 16.4004L143.711 19.0578L143.721 19.0727L143.73 19.0874L147.947 16.4004ZM148.391 17.9248V22.9248H153.391V17.9248H148.391ZM147.072 17.9248H142.072V22.9248H147.072V17.9248ZM146.497 16.5098L143.143 20.2174L143.155 20.2285L143.167 20.2395L146.497 16.5098ZM143.36 16.4209L146.447 20.3542L146.453 20.3491L143.36 16.4209ZM143.332 18.6357L140.147 22.4895L140.175 22.5125L140.203 22.5351L143.332 18.6357ZM145.089 19.4014L143.733 24.214L143.74 24.2159L145.089 19.4014ZM147.031 20.1738L144.434 24.4464L144.458 24.4613L144.483 24.476L147.031 20.1738ZM148.07 21.1514L143.778 23.7161L143.789 23.7353L143.801 23.7544L148.07 21.1514ZM147.468 24.4121L150.514 28.3774L150.523 28.3704L150.532 28.3635L147.468 24.4121ZM143.032 24.7471L140.994 29.3132L141.009 29.3198L141.024 29.3262L143.032 24.7471ZM141.658 23.667L137.561 26.5343L137.571 26.548L137.581 26.5616L141.658 23.667ZM141.179 22.1152V17.1152H136.179V22.1152H141.179ZM142.498 22.1152H147.498V17.1152H142.498V22.1152ZM143.162 23.5439L140.053 27.4601L140.075 27.4777L140.097 27.495L143.162 23.5439ZM146.579 21.3564L143.488 25.2862L143.504 25.299L143.521 25.3117L146.579 21.3564ZM146.101 15.7581C145.739 15.6538 145.531 15.5672 145.436 15.5217C145.335 15.4727 145.438 15.5064 145.627 15.6788L138.891 23.0693C140.236 24.2952 141.914 24.9592 143.339 25.3689L146.101 15.7581ZM145.661 15.7101C145.861 15.8955 146.094 16.1835 146.266 16.577C146.438 16.9711 146.494 17.3418 146.494 17.624H136.494C136.494 19.7158 137.334 21.6239 138.857 23.038L145.661 15.7101ZM146.494 17.624C146.494 17.9149 146.431 18.3093 146.231 18.7232C146.033 19.133 145.778 19.4039 145.595 19.5537L139.265 11.8116C137.518 13.24 136.494 15.2905 136.494 17.624H146.494ZM145.598 19.5512C145.395 19.7174 145.185 19.8189 145.019 19.8714C144.864 19.9201 144.801 19.9102 144.877 19.9102V9.91016C142.998 9.91016 140.978 10.4089 139.262 11.8141L145.598 19.5512ZM144.877 19.9102C144.897 19.9102 144.862 19.912 144.785 19.8953C144.706 19.8782 144.6 19.845 144.482 19.7864L148.923 10.8269C147.604 10.1728 146.217 9.91016 144.877 9.91016V19.9102ZM144.497 19.7939C144.403 19.7479 144.266 19.6661 144.116 19.5335C143.963 19.3989 143.824 19.2371 143.711 19.0578L152.182 13.7429C151.352 12.4199 150.2 11.4543 148.908 10.8194L144.497 19.7939ZM143.73 19.0874C143.634 18.937 143.544 18.7485 143.48 18.5293C143.416 18.3101 143.391 18.1027 143.391 17.9248H153.391C153.391 16.4218 152.971 14.9814 152.163 13.7133L143.73 19.0874ZM148.391 12.9248H147.072V22.9248H148.391V12.9248ZM152.072 17.9248C152.072 16.1683 151.458 14.2362 149.828 12.7801L143.167 20.2395C142.794 19.9058 142.489 19.4781 142.295 19C142.109 18.5405 142.072 18.1535 142.072 17.9248H152.072ZM149.852 12.8021C148.269 11.3695 146.374 10.9902 144.877 10.9902V20.9902C144.775 20.9902 143.961 20.9573 143.143 20.2174L149.852 12.8021ZM144.877 10.9902C143.543 10.9902 141.802 11.283 140.266 12.4927L146.453 20.3491C145.646 20.9846 144.917 20.9902 144.877 20.9902V10.9902ZM140.273 12.4876C138.567 13.8265 137.82 15.7472 137.82 17.6035H147.82C147.82 17.9483 147.756 18.4504 147.503 19.0054C147.243 19.5758 146.859 20.0308 146.447 20.3542L140.273 12.4876ZM137.82 17.6035C137.82 19.6511 138.778 21.3578 140.147 22.4895L146.518 14.782C146.805 15.0188 147.155 15.3962 147.426 15.9416C147.703 16.4992 147.82 17.0787 147.82 17.6035H137.82ZM140.203 22.5351C141.361 23.4646 142.751 23.9372 143.733 24.214L146.445 14.5888C146.319 14.5532 146.222 14.5222 146.149 14.4972C146.076 14.4719 146.038 14.456 146.029 14.452C146.019 14.4475 146.053 14.4618 146.12 14.5001C146.155 14.5198 146.201 14.5481 146.258 14.5859C146.314 14.6236 146.383 14.6733 146.462 14.7364L140.203 22.5351ZM143.74 24.2159C144.023 24.2953 144.221 24.3639 144.348 24.4146C144.48 24.4671 144.495 24.4839 144.434 24.4464L149.628 15.9012C148.615 15.2859 147.483 14.8795 146.438 14.5868L143.74 24.2159ZM144.483 24.476C144.413 24.4349 144.077 24.2169 143.778 23.7161L152.362 18.5866C151.616 17.3385 150.587 16.4688 149.579 15.8717L144.483 24.476ZM143.801 23.7544C143.48 23.2284 143.412 22.7376 143.412 22.4707H153.412C153.412 21.192 153.115 19.8217 152.339 18.5483L143.801 23.7544ZM143.412 22.4707C143.412 22.2094 143.467 21.8117 143.678 21.3758C143.891 20.9377 144.177 20.6371 144.404 20.4607L150.532 28.3635C152.402 26.9138 153.412 24.7983 153.412 22.4707H143.412ZM144.422 20.4469C144.654 20.2687 144.865 20.1845 144.985 20.1499C145.094 20.1187 145.097 20.1367 144.946 20.1367V30.1367C146.74 30.1367 148.764 29.7218 150.514 28.3774L144.422 20.4469ZM144.946 20.1367C144.922 20.1367 144.927 20.1347 144.952 20.1398C144.978 20.1451 145.009 20.1546 145.039 20.1679L141.024 29.3262C142.285 29.8791 143.611 30.1367 144.946 30.1367V20.1367ZM145.069 20.1809C145.161 20.2218 145.462 20.3881 145.735 20.7724L137.581 26.5616C138.501 27.8573 139.718 28.7437 140.994 29.3132L145.069 20.1809ZM145.754 20.7997C145.884 20.9862 145.999 21.2115 146.077 21.4639C146.154 21.7145 146.179 21.9397 146.179 22.1152H136.179C136.179 23.6758 136.629 25.2027 137.561 26.5343L145.754 20.7997ZM141.179 27.1152H142.498V17.1152H141.179V27.1152ZM137.498 22.1152C137.498 24.1266 138.328 26.091 140.053 27.4601L146.27 19.6278C146.613 19.8996 146.958 20.2979 147.2 20.8187C147.437 21.3298 147.498 21.7948 147.498 22.1152H137.498ZM140.097 27.495C141.662 28.7082 143.443 29.0635 144.946 29.0635V19.0635C144.963 19.0635 145.554 19.0724 146.226 19.5928L140.097 27.495ZM144.946 29.0635C146.223 29.0635 148.001 28.817 149.578 27.61L143.499 19.6693C144.338 19.0274 145.054 19.0635 144.946 19.0635V29.0635ZM149.578 27.61C151.252 26.3287 152.092 24.4397 152.092 22.4844H142.092C142.092 22.0865 142.171 21.5496 142.445 20.9779C142.723 20.3984 143.115 19.9636 143.499 19.6693L149.578 27.61ZM152.092 22.4844C152.092 20.6756 151.373 18.7429 149.638 17.4012L143.521 25.3117C143.079 24.9698 142.679 24.4932 142.412 23.9057C142.154 23.3371 142.092 22.8268 142.092 22.4844H152.092ZM149.671 17.4267C148.514 16.5163 147.079 16.0408 146.11 15.7605L143.33 25.3665C143.486 25.4116 143.611 25.4515 143.709 25.4853C143.808 25.5194 143.868 25.5436 143.897 25.5558C143.927 25.5688 143.906 25.5612 143.846 25.5284C143.815 25.5112 143.769 25.4842 143.71 25.4462C143.652 25.4084 143.576 25.3557 143.488 25.2862L149.671 17.4267ZM157.126 20.3994V25.3994H162.126V20.3994H157.126ZM152.812 20.3994V15.3994H147.812V20.3994H152.812ZM152.812 23.9268H147.812V28.9268H152.812V23.9268ZM157.823 23.9268H162.823V18.9268H157.823V23.9268ZM157.823 25V30H162.823V25H157.823ZM151.5 25H146.5V30H151.5V25ZM151.5 15.0469V10.0469H146.5V15.0469H151.5ZM157.755 15.0469H162.755V10.0469H157.755V15.0469ZM157.755 16.127V21.127H162.755V16.127H157.755ZM152.812 16.127V11.127H147.812V16.127H152.812ZM152.812 19.3262H147.812V24.3262H152.812V19.3262ZM157.126 19.3262H162.126V14.3262H157.126V19.3262ZM157.126 15.3994H152.812V25.3994H157.126V15.3994ZM147.812 20.3994V23.9268H157.812V20.3994H147.812ZM152.812 28.9268H157.823V18.9268H152.812V28.9268ZM152.823 23.9268V25H162.823V23.9268H152.823ZM157.823 20H151.5V30H157.823V20ZM156.5 25V15.0469H146.5V25H156.5ZM151.5 20.0469H157.755V10.0469H151.5V20.0469ZM152.755 15.0469V16.127H162.755V15.0469H152.755ZM157.755 11.127H152.812V21.127H157.755V11.127ZM147.812 16.127V19.3262H157.812V16.127H147.812ZM152.812 24.3262H157.126V14.3262H152.812V24.3262ZM152.126 19.3262V20.3994H162.126V19.3262H152.126ZM168.206 23.6943L172.305 26.5565L173.206 25.267V23.6943H168.206ZM166.791 24.7812L168.623 29.4333L168.632 29.4297L168.642 29.426L166.791 24.7812ZM162.525 24.5693L159.925 28.8403L159.937 28.8472L159.948 28.8541L162.525 24.5693ZM161.062 22.9424L156.567 25.1316L156.573 25.1434L156.578 25.1551L161.062 22.9424ZM160.536 20.502H155.536V20.5266L155.536 20.5512L160.536 20.502ZM161.582 16.1475L157.773 12.9074L157.768 12.9135L157.763 12.9196L161.582 16.1475ZM167.044 15.71L163.824 19.5352L163.832 19.542L163.84 19.5488L167.044 15.71ZM168.206 17.9658V22.9658H173.982L173.154 17.249L168.206 17.9658ZM166.893 17.9658L161.978 18.8842L162.741 22.9658H166.893V17.9658ZM162.539 16.9199L158.51 13.958L158.507 13.9631L162.539 16.9199ZM161.855 19.5996L156.855 19.5802L156.855 19.5899V19.5996H161.855ZM162.621 23.0791L158.664 26.1356L158.669 26.1422L158.674 26.1488L162.621 23.0791ZM166.9 23.3457L170.562 26.7504L171.9 25.3111V23.3457H166.9ZM166.9 21.1104H171.9V16.1104H166.9V21.1104ZM164.596 21.1104H159.596V26.1104H164.596V21.1104ZM164.596 20.0439V15.0439H159.596V20.0439H164.596ZM168.206 20.0439H173.206V15.0439H168.206V20.0439ZM164.106 20.8322C164.233 20.6502 164.387 20.4906 164.553 20.3631C164.716 20.2381 164.856 20.1697 164.94 20.1365L168.642 29.426C170.054 28.8631 171.35 27.9257 172.305 26.5565L164.106 20.8322ZM164.958 20.1292C165.062 20.0883 165.006 20.1367 164.685 20.1367V30.1367C165.969 30.1367 167.316 29.9482 168.623 29.4333L164.958 20.1292ZM164.685 20.1367C164.67 20.1367 164.717 20.1353 164.807 20.1589C164.9 20.1833 165.003 20.2253 165.102 20.2846L159.948 28.8541C161.435 29.7486 163.064 30.1367 164.685 30.1367V20.1367ZM165.125 20.2983C165.222 20.3577 165.321 20.438 165.406 20.5324C165.489 20.6251 165.531 20.7004 165.546 20.7296L156.578 25.1551C157.317 26.6518 158.434 27.9326 159.925 28.8403L165.125 20.2983ZM165.557 20.7531C165.595 20.8307 165.539 20.7719 165.535 20.4527L155.536 20.5512C155.551 22.0823 155.845 23.6504 156.567 25.1316L165.557 20.7531ZM165.536 20.502V19.6338H155.536V20.502H165.536ZM165.536 19.6338C165.536 19.261 165.58 19.0948 165.586 19.0744C165.588 19.0678 165.579 19.0999 165.549 19.1583C165.517 19.218 165.469 19.294 165.4 19.3753L157.763 12.9196C156.053 14.9429 155.536 17.4085 155.536 19.6338H165.536ZM165.39 19.3875C165.24 19.5641 165.022 19.7292 164.778 19.8311C164.556 19.9245 164.443 19.9102 164.535 19.9102V9.91016C162.078 9.91016 159.591 10.7717 157.773 12.9074L165.39 19.3875ZM164.535 19.9102C164.631 19.9102 164.576 19.9228 164.423 19.8739C164.256 19.8207 164.037 19.7146 163.824 19.5352L170.263 11.8847C168.517 10.4151 166.443 9.91016 164.535 9.91016V19.9102ZM163.84 19.5488C163.63 19.374 163.469 19.163 163.364 18.9602C163.266 18.7696 163.253 18.655 163.257 18.6826L173.154 17.249C172.872 15.3037 172.005 13.3379 170.247 11.8711L163.84 19.5488ZM168.206 12.9658H166.893V22.9658H168.206V12.9658ZM171.808 17.0475C171.539 15.6066 170.857 13.9325 169.337 12.6558C167.809 11.3722 166.03 10.9902 164.542 10.9902V20.9902C164.375 20.9902 163.649 20.9375 162.904 20.3124C162.169 19.6943 162.001 19.008 161.978 18.8842L171.808 17.0475ZM164.542 10.9902C162.333 10.9902 160.053 11.8601 158.51 13.958L166.567 19.8819C166.32 20.2181 165.951 20.5424 165.486 20.7579C165.045 20.963 164.689 20.9902 164.542 20.9902V10.9902ZM158.507 13.9631C157.176 15.7769 156.862 17.8829 156.855 19.5802L166.855 19.6191C166.856 19.339 166.885 19.2461 166.874 19.2872C166.862 19.335 166.794 19.5727 166.571 19.8767L158.507 13.9631ZM156.855 19.5996V20.4131H166.855V19.5996H156.855ZM156.855 20.4131C156.855 22.2644 157.281 24.345 158.664 26.1356L166.578 20.0226C166.748 20.2434 166.824 20.439 166.852 20.5369C166.877 20.6229 166.855 20.5978 166.855 20.4131H156.855ZM158.674 26.1488C160.182 28.088 162.363 29.0635 164.692 29.0635V19.0635C164.896 19.0635 165.255 19.1053 165.668 19.3014C166.087 19.501 166.386 19.7765 166.567 20.0094L158.674 26.1488ZM164.692 29.0635C165.538 29.0635 166.467 28.9712 167.404 28.6934L164.564 19.1054C164.668 19.0745 164.735 19.0647 164.754 19.0623C164.773 19.0599 164.755 19.0635 164.692 19.0635V29.0635ZM167.404 28.6934C168.556 28.3523 169.659 27.721 170.562 26.7504L163.238 19.941C163.658 19.49 164.15 19.2278 164.564 19.1054L167.404 28.6934ZM171.9 23.3457V21.1104H161.9V23.3457H171.9ZM166.9 16.1104H164.596V26.1104H166.9V16.1104ZM169.596 21.1104V20.0439H159.596V21.1104H169.596ZM164.596 25.0439H168.206V15.0439H164.596V25.0439ZM163.206 20.0439V23.6943H173.206V20.0439H163.206ZM178.807 15.0469H183.807V10.0469H178.807V15.0469ZM178.807 21.8145L183.807 21.8387L183.807 21.8266V21.8145H178.807ZM177.918 24.1182L174.356 20.6099L174.349 20.6169L174.342 20.6238L177.918 24.1182ZM175.539 25.123L175.735 30.1192L175.819 30.1159L175.902 30.1099L175.539 25.123ZM175.191 25.1367V30.1367H175.289L175.387 30.1329L175.191 25.1367ZM172.586 24.2549L169.224 27.9558L172.586 24.2549ZM171.602 21.8281H166.602V21.8502L166.602 21.8724L171.602 21.8281ZM171.602 15.0469V10.0469H166.602V15.0469H171.602ZM172.901 15.0469H177.901V10.0469H172.901V15.0469ZM173.495 23.4688L169.94 26.984L169.95 26.9942L169.96 27.0043L173.495 23.4688ZM176.893 23.4688L173.357 19.9332L173.347 19.9434L173.337 19.9537L176.893 23.4688ZM177.487 15.0469V10.0469H172.487V15.0469H177.487ZM173.807 15.0469V21.8145H183.807V15.0469H173.807ZM173.807 21.7902C173.807 21.7369 173.817 21.5513 173.916 21.295C174.019 21.0281 174.178 20.7905 174.356 20.6099L181.481 27.6264C183.097 25.9849 183.797 23.9108 183.807 21.8387L173.807 21.7902ZM174.342 20.6238C174.529 20.4322 174.744 20.294 174.94 20.2112C175.124 20.1338 175.222 20.1329 175.177 20.1362L175.902 30.1099C177.861 29.9674 179.891 29.2533 181.494 27.6125L174.342 20.6238ZM175.343 20.1269L174.995 20.1406L175.387 30.1329L175.735 30.1192L175.343 20.1269ZM175.191 20.1367C175.091 20.1367 175.157 20.1231 175.326 20.1804C175.511 20.243 175.738 20.3635 175.948 20.554L169.224 27.9558C171.003 29.5716 173.177 30.1367 175.191 30.1367V20.1367ZM175.948 20.554C176.179 20.7634 176.37 21.0364 176.488 21.3278C176.599 21.6014 176.602 21.7806 176.602 21.7839L166.602 21.8724C166.621 24.0256 167.361 26.2629 169.224 27.9558L175.948 20.554ZM176.602 21.8281V15.0469H166.602V21.8281H176.602ZM171.602 20.0469H172.901V10.0469H171.602V20.0469ZM167.901 15.0469V21.7871H177.901V15.0469H167.901ZM167.901 21.7871C167.901 23.4419 168.38 25.4068 169.94 26.984L177.051 19.9535C177.398 20.3046 177.631 20.7055 177.763 21.0805C177.889 21.4351 177.901 21.6953 177.901 21.7871H167.901ZM169.96 27.0043C171.557 28.6017 173.556 29.0635 175.191 29.0635V19.0635C175.265 19.0635 175.518 19.0726 175.872 19.1967C176.247 19.3285 176.663 19.5656 177.031 19.9332L169.96 27.0043ZM175.191 29.0635C176.81 29.0635 178.837 28.614 180.449 26.9838L173.337 19.9537C174.165 19.1164 175.057 19.0635 175.191 19.0635V29.0635ZM180.428 27.0043C182.009 25.4239 182.487 23.4456 182.487 21.7939H172.487C172.487 21.7027 172.499 21.4392 172.627 21.0795C172.762 20.6987 173 20.2902 173.357 19.9332L180.428 27.0043ZM182.487 21.7939V15.0469H172.487V21.7939H182.487ZM177.487 20.0469H178.807V10.0469H177.487V20.0469ZM183.686 25V30H188.686V25H183.686ZM182.374 25H177.374V30H182.374V25ZM182.374 15.0469V10.0469H177.374V15.0469H182.374ZM183.686 15.0469H188.686V10.0469H183.686V15.0469ZM183.686 20H182.374V30H183.686V20ZM187.374 25V15.0469H177.374V25H187.374ZM182.374 20.0469H183.686V10.0469H182.374V20.0469ZM178.686 15.0469V25H188.686V15.0469H178.686ZM191.143 20.9736L195.549 18.6098L194.135 15.9736H191.143V20.9736ZM188.805 20.9736V15.9736H183.805V20.9736H188.805ZM188.805 25V30H193.805V25H188.805ZM187.486 25H182.486V30H187.486V25ZM187.486 15.0469V10.0469H182.486V15.0469H187.486ZM193.365 15.8125L190.13 19.625L190.137 19.6311L190.144 19.6371L193.365 15.8125ZM193.768 19.6611L189.735 16.706L189.725 16.7191L189.716 16.7322L193.768 19.6611ZM192.373 20.6934L190.59 16.0221L185.21 18.0756L187.999 23.1144L192.373 20.6934ZM194.711 24.918H199.711V23.6267L199.086 22.497L194.711 24.918ZM194.711 25V30H199.711V25H194.711ZM193.303 25L188.897 27.3638L190.312 30H193.303V25ZM188.805 19.9004H183.805V24.9004H188.805V19.9004ZM192.373 19.3945L189.09 15.6234L189.079 15.633L189.068 15.6427L192.373 19.3945ZM192.401 16.626L189.056 20.3424L189.067 20.3528L189.079 20.363L192.401 16.626ZM190.815 16.127L190.848 11.1271L190.831 11.127H190.815V16.127ZM188.805 16.127V11.127H183.805V16.127H188.805ZM191.143 15.9736H188.805V25.9736H191.143V15.9736ZM183.805 20.9736V25H193.805V20.9736H183.805ZM188.805 20H187.486V30H188.805V20ZM192.486 25V15.0469H182.486V25H192.486ZM187.486 20.0469H190.781V10.0469H187.486V20.0469ZM190.781 20.0469C190.974 20.0469 190.975 20.0702 190.847 20.0323C190.703 19.9897 190.428 19.8779 190.13 19.625L196.6 12C194.779 10.4556 192.595 10.0469 190.781 10.0469V20.0469ZM190.144 19.6371C189.82 19.3639 189.567 19.0099 189.417 18.6412C189.277 18.2988 189.274 18.0651 189.274 18.041H199.274C199.274 15.9626 198.576 13.6643 196.585 11.9879L190.144 19.6371ZM189.274 18.041C189.274 17.8935 189.295 17.6768 189.375 17.4207C189.456 17.1604 189.581 16.9162 189.735 16.706L197.801 22.6162C198.821 21.2238 199.274 19.6268 199.274 18.041H189.274ZM189.716 16.7322C189.856 16.5382 190.022 16.3736 190.195 16.2456C190.364 16.1202 190.508 16.0536 190.59 16.0221L194.156 25.3647C195.546 24.8344 196.847 23.936 197.82 22.5901L189.716 16.7322ZM187.999 23.1144L190.337 27.339L199.086 22.497L196.748 18.2724L187.999 23.1144ZM189.711 24.918V25H199.711V24.918H189.711ZM194.711 20H193.303V30H194.711V20ZM197.709 22.6362L195.549 18.6098L186.737 23.3374L188.897 27.3638L197.709 22.6362ZM188.805 24.9004H190.822V14.9004H188.805V24.9004ZM190.822 24.9004C192.343 24.9004 194.152 24.4913 195.679 23.1463L189.068 15.6427C189.829 14.9723 190.604 14.9004 190.822 14.9004V24.9004ZM195.657 23.1656C197.252 21.7768 197.954 19.8893 197.954 18.041H187.954C187.954 17.747 188.007 17.3155 188.215 16.8308C188.428 16.334 188.744 15.9249 189.09 15.6234L195.657 23.1656ZM197.954 18.041C197.954 16.3758 197.413 14.3911 195.723 12.8889L189.079 20.363C188.658 19.9893 188.347 19.5272 188.16 19.0478C187.982 18.5931 187.954 18.2268 187.954 18.041H197.954ZM195.746 12.9095C194.157 11.4799 192.263 11.1364 190.848 11.1271L190.782 21.1268C190.752 21.1267 189.915 21.1158 189.056 20.3424L195.746 12.9095ZM190.815 11.127H188.805V21.127H190.815V11.127ZM183.805 16.127V19.9004H193.805V16.127H183.805Z" fill="url(#paint1_diamond)"/>
<defs>
<radialGradient id="paint0_diamond" cx="0" cy="0" r="1" gradientUnits="userSpaceOnUse" gradientTransform="translate(148.516 20) scale(147.484 1026.02)">
<stop stop-color="#44AAAA"/>
<stop offset="1" stop-color="#88BBBB"/>
</radialGradient>
<radialGradient id="paint1_diamond" cx="0" cy="0" r="1" gradientUnits="userSpaceOnUse" gradientTransform="translate(148.516 20) scale(147.484 256.506)">
<stop stop-color="#44AAAA"/>
<stop offset="1" stop-color="#88BBBB"/>
</radialGradient>
</defs>
</svg>
